<svg width="26" height="27" fill="none" xmlns="http://www.w3.org/2000/svg"><g clip-path="url(#a)" fill="#fff"><path d="M24.7 26.5H1.3c-.737 0-1.3-.561-1.3-1.296V8.534c0-.735.563-1.296 1.3-1.296h23.4c.737 0 1.3.561 1.3 1.295v16.715c0 .69-.563 1.252-1.3 1.252ZM2.6 23.909h20.8V9.829H2.6v14.08Z"/><path d="M24.7 26.5c-.737 0-1.3-.561-1.3-1.296V4.387H2.6v20.817c0 .735-.563 1.296-1.3 1.296-.737 0-1.3-.561-1.3-1.296V3.091c0-.734.563-1.295 1.3-1.295h23.4c.737 0 1.3.561 1.3 1.295v22.113c0 .735-.563 1.296-1.3 1.296Z"/><path d="M19.283 6.158c-.65 0-1.17-.518-1.17-1.166V1.666c0-.648.52-1.166 1.17-1.166.65 0 1.17.518 1.17 1.166v3.369c-.043.605-.52 1.123-1.17 1.123ZM13 6.158c-.65 0-1.17-.518-1.17-1.166V1.666C11.873 1.018 12.393.5 13 .5s1.17.518 1.17 1.166v3.369c0 .605-.52 1.123-1.17 1.123ZM6.76 6.158c-.65 0-1.17-.518-1.17-1.166V1.666C5.59 1.018 6.11.5 6.76.5c.65 0 1.17.518 1.17 1.166v3.369c-.043.605-.563 1.123-1.17 1.123Z"/></g><defs><clipPath id="a"><path fill="#fff" d="M0 .5h26v26H0z"/></clipPath></defs></svg>