<svg width="25" height="24" fill="none" xmlns="http://www.w3.org/2000/svg"><path d="M12.473 24c-6.622 0-12-5.378-12-12s5.378-12 12-12c6.623 0 12 5.378 12 12s-5.377 12-12 12Zm0-21.592A9.592 9.592 0 0 0 2.881 12a9.592 9.592 0 0 0 9.592 9.592A9.592 9.592 0 0 0 22.065 12a9.592 9.592 0 0 0-9.592-9.592Z" fill="#fff"/><path d="M17.57 16.696c-.24 0-.481-.08-.682-.201l-5.097-3.492A1.255 1.255 0 0 1 11.27 12V4.696c0-.683.522-1.204 1.204-1.204.683 0 1.204.521 1.204 1.204v6.662l4.576 3.13c.562.362.682 1.124.32 1.686-.24.361-.601.522-1.003.522Z" fill="#fff"/></svg>