<svg width="16" height="16" fill="none" xmlns="http://www.w3.org/2000/svg"><g clip-path="url(#a)" stroke="#fff" stroke-linecap="round" stroke-linejoin="round"><path d="M8 14A6 6 0 1 0 8 2a6 6 0 0 0 0 12Z"/><path d="M9.667 6a2.219 2.219 0 0 0-1.196-.637 2.071 2.071 0 0 0-1.308.206c-.409.212-.756.553-1 .984A2.95 2.95 0 0 0 5.79 8c0 .513.13 1.015.373 1.447.244.43.591.772 1 .984.41.21.864.282 1.308.206.444-.076.859-.298 1.196-.637"/></g><defs><clipPath id="a"><path fill="#fff" d="M0 0h16v16H0z"/></clipPath></defs></svg>