<svg width="26" height="27" fill="none" xmlns="http://www.w3.org/2000/svg"><g clip-path="url(#a)" fill="#F8F8FF"><path d="M11.743 23.983C5.243 23.983 0 18.73 0 12.263 0 5.795 5.243.5 11.743.5s11.744 5.252 11.744 11.763a12.13 12.13 0 0 1-1.56 5.903c-.347.608-1.17.825-1.777.478-.607-.348-.823-1.172-.477-1.78.824-1.389 1.214-2.952 1.214-4.601-.044-5.079-4.117-9.159-9.144-9.159-5.026 0-9.143 4.08-9.143 9.159a9.125 9.125 0 0 0 9.143 9.159 9.434 9.434 0 0 0 4.594-1.216c.606-.347 1.43-.13 1.776.478.347.607.13 1.432-.476 1.78a12.286 12.286 0 0 1-5.894 1.519Z"/><path d="M11.743 23.983C5.243 23.983 0 18.73 0 12.263 0 10.18.563 8.139 1.56 6.36c.347-.608 1.17-.825 1.777-.478.606.348.823 1.172.476 1.78a9.474 9.474 0 0 0-1.213 4.6c0 5.036 4.073 9.16 9.143 9.16s9.144-4.08 9.144-9.16c0-5.078-4.117-9.158-9.144-9.158A9.434 9.434 0 0 0 7.15 4.32c-.607.347-1.43.13-1.777-.478-.346-.607-.13-1.432.477-1.78A12.079 12.079 0 0 1 11.743.5c6.457 0 11.7 5.252 11.7 11.763 0 6.51-5.243 11.72-11.7 11.72Z"/><path d="M24.7 26.5c-.347 0-.65-.13-.91-.39l-5.503-5.513c-.52-.521-.52-1.346 0-1.823.52-.521 1.343-.521 1.82 0l5.503 5.512c.52.521.52 1.346 0 1.823-.26.26-.607.39-.91.39Z"/></g><defs><clipPath id="a"><path fill="#fff" d="M0 .5h26v26H0z"/></clipPath></defs></svg>